<svg t="1640274001702" class="icon" viewBox="0 0 1070 1024" version="1.1" xmlns="http://www.w3.org/2000/svg" p-id="2189" width="200" height="200"><path d="M302.431373 857.098039c-138.039216 0-249.72549-111.686275-249.725491-249.72549s111.686275-249.72549 249.725491-249.72549S552.156863 470.588235 552.156863 607.372549s-112.941176 249.72549-249.72549 249.72549z m0-461.803921c-116.705882 0-212.078431 95.372549-212.078432 212.078431s95.372549 212.078431 212.078432 212.078431S514.509804 725.333333 514.509804 607.372549s-95.372549-212.078431-212.078431-212.078431zM662.588235 327.529412c-81.568627 0-148.078431-66.509804-148.078431-148.078432S581.019608 31.372549 662.588235 31.372549s148.078431 66.509804 148.078432 148.078431-66.509804 148.078431-148.078432 148.078432z m0-258.509804C602.352941 69.019608 552.156863 117.960784 552.156863 179.45098s48.941176 110.431373 110.431372 110.431373 110.431373-48.941176 110.431373-110.431373-50.196078-110.431373-110.431373-110.431372zM909.803922 946.196078c-76.54902 0-138.039216-61.490196-138.039216-138.039215s61.490196-138.039216 138.039216-138.039216 138.039216 61.490196 138.039215 138.039216-61.490196 138.039216-138.039215 138.039215z m0-238.431372c-55.215686 0-100.392157 45.176471-100.392157 100.392157s45.176471 100.392157 100.392157 100.392157 100.392157-45.176471 100.392156-100.392157-45.176471-100.392157-100.392156-100.392157z" fill="#0B3155" p-id="2190"></path><path d="M421.647059 429.176471c-5.019608 0-11.294118-2.509804-15.058824-7.529412-6.27451-7.529412-5.019608-20.078431 2.509804-26.352941l151.843137-120.470589c7.529412-6.27451 20.078431-5.019608 26.352942 2.509804 6.27451 7.529412 5.019608 20.078431-2.509804 26.352942l-151.843138 120.470588c-2.509804 3.764706-7.529412 5.019608-11.294117 5.019608zM790.588235 786.823529c-1.254902 0-3.764706 0-5.019608-1.254902l-273.568627-77.803921c-10.039216-2.509804-16.313725-13.803922-12.54902-23.843137 2.509804-10.039216 13.803922-16.313725 23.843138-12.54902l273.568627 77.803922c10.039216 2.509804 16.313725 13.803922 12.54902 23.843137-2.509804 7.529412-10.039216 13.803922-18.82353 13.803921z" fill="#0B3155" p-id="2191"></path></svg>